<?xml version="1.0" standalone="no"?>
<!DOCTYPE svg PUBLIC "-//W3C//DTD SVG 20010904//EN"
 "http://www.w3.org/TR/2001/REC-SVG-20010904/DTD/svg10.dtd">
<svg version="1.0" xmlns="http://www.w3.org/2000/svg"
 width="832.000000pt" height="832.000000pt" viewBox="0 0 832.000000 832.000000"
 preserveAspectRatio="xMidYMid meet">
<metadata>
Created by potrace 1.14, written by Peter Selinger 2001-2017
</metadata>
<g transform="translate(0.000000,832.000000) scale(0.100000,-0.100000)"
fill="#000000" stroke="none">
<path d="M4058 8305 c-22 -12 -63 -87 -63 -117 0 -3 -3 -10 -7 -14 -5 -4 -8 4
-8 19 0 46 -17 76 -39 70 -12 -3 -21 -8 -21 -12 -1 -3 -3 -98 -6 -211 -2 -113
-6 -254 -8 -315 -3 -110 -18 -189 -36 -200 -11 -7 -31 35 -23 48 2 4 4 69 3
145 -1 75 -2 198 -3 272 0 74 2 158 5 185 7 63 -4 85 -42 85 -29 0 -34 -7 -46
-62 -6 -29 -5 -138 3 -198 3 -25 7 -144 8 -265 2 -121 7 -245 11 -275 4 -30 8
-66 10 -80 4 -35 4 -200 -1 -230 -2 -14 -4 -33 -4 -42 -1 -10 -5 -18 -11 -18
-13 0 -24 47 -21 87 6 69 5 169 -2 203 -4 19 -10 103 -12 185 -3 83 -7 175
-10 205 -3 30 -7 118 -9 195 -4 154 -11 201 -34 228 -19 21 -36 22 -52 2 -16
-19 -14 -97 4 -192 2 -10 7 -82 10 -158 6 -127 12 -217 22 -315 2 -19 6 -64 9
-100 3 -36 8 -85 11 -110 2 -25 7 -98 9 -162 3 -64 9 -127 13 -140 11 -29 17
-133 13 -205 0 -13 -6 -23 -12 -23 -15 0 -36 58 -42 120 -4 30 -11 73 -16 95
-6 22 -12 78 -16 125 -3 47 -11 110 -18 140 -7 30 -14 98 -15 150 -2 52 -7
111 -12 130 -10 38 -17 101 -25 225 -3 44 -7 89 -9 100 -6 32 -15 105 -22 170
-13 116 -17 125 -54 125 -19 0 -30 -6 -33 -17 -8 -29 4 -228 17 -293 10 -44
18 -104 21 -155 5 -71 14 -141 30 -211 8 -33 12 -69 10 -80 -2 -10 -4 -22 -4
-26 -1 -5 -5 -8 -10 -8 -9 0 -17 31 -27 110 -8 65 -10 78 -27 150 -18 74 -28
137 -33 195 -3 50 -10 98 -23 172 -6 32 -13 80 -16 107 -6 63 -24 84 -60 68
-17 -8 -25 -20 -26 -39 -1 -16 -2 -39 -3 -53 -1 -21 14 -107 28 -160 17 -64
28 -124 32 -175 2 -33 7 -76 11 -95 4 -19 8 -39 8 -45 1 -5 9 -37 19 -70 24
-79 26 -91 30 -150 2 -27 11 -70 20 -94 11 -29 13 -48 6 -60 -9 -15 -9 -15
-10 1 0 10 -12 43 -26 75 -53 118 -71 181 -73 252 -1 39 -6 84 -11 101 -5 16
-7 30 -5 30 3 0 0 11 -5 25 -5 14 -12 36 -14 48 -2 12 -9 42 -16 67 -7 25 -14
56 -15 70 -2 14 -4 25 -5 25 -3 0 -7 26 -14 84 -10 81 -32 121 -67 121 -35 0
-49 -23 -39 -66 5 -19 4 -34 -1 -34 -5 0 -9 8 -9 18 0 9 -11 30 -23 46 -18 22
-32 29 -56 29 -62 0 -63 -32 -1 -211 43 -125 51 -166 40 -197 -16 -45 -91 132
-130 304 -21 89 -62 113 -117 67 -34 -29 -69 -97 -112 -220 -46 -129 -47 -130
-65 -61 -24 88 -49 128 -85 139 -35 10 -61 -5 -61 -35 0 -11 13 -43 29 -72 16
-28 46 -95 66 -147 20 -52 47 -120 60 -150 13 -30 37 -89 54 -132 16 -42 46
-107 66 -146 39 -77 40 -82 22 -82 -15 0 -60 75 -116 193 -22 48 -52 104 -65
125 -12 20 -33 66 -45 102 -12 36 -26 74 -31 85 -5 11 -15 37 -22 58 -16 48
-61 97 -88 97 -34 0 -42 -40 -19 -102 12 -29 28 -61 36 -70 9 -10 12 -18 8
-18 -4 0 -1 -8 8 -17 8 -10 68 -126 132 -258 64 -132 133 -274 153 -315 20
-41 42 -81 49 -88 7 -7 13 -16 14 -20 0 -4 2 -17 5 -28 5 -30 -19 -49 -38 -30
-21 21 -94 163 -114 221 -17 51 -131 289 -226 472 -29 56 -61 120 -71 142 -23
51 -61 65 -88 33 -20 -26 -16 -48 20 -112 26 -47 88 -163 140 -262 46 -87 55
-102 66 -110 6 -4 6 -8 2 -8 -5 0 0 -12 11 -27 21 -31 120 -228 142 -283 7
-19 26 -53 40 -75 37 -54 73 -126 66 -132 -5 -6 -77 102 -75 113 0 4 -3 10 -8
13 -18 12 -112 178 -194 341 -45 91 -92 181 -104 200 -12 19 -45 80 -74 135
-56 108 -76 136 -106 152 -33 17 -45 5 -45 -46 0 -44 13 -75 47 -109 23 -23
256 -440 404 -722 13 -25 26 -47 29 -50 21 -20 133 -232 137 -260 l6 -35 -27
30 c-14 17 -26 33 -26 37 0 4 -6 13 -12 20 -7 7 -24 33 -37 58 -13 25 -46 78
-73 118 -27 41 -63 104 -79 140 -34 75 -124 238 -147 265 -8 9 -11 17 -7 17 4
0 1 8 -7 18 -8 9 -26 37 -39 62 -13 25 -28 48 -34 52 -5 4 -6 8 -1 8 5 0 2 8
-6 18 -8 9 -41 64 -73 122 -67 120 -81 139 -114 151 -30 12 -51 -4 -51 -39 0
-28 22 -67 118 -217 80 -123 82 -127 208 -355 116 -210 176 -309 187 -310 4 0
7 -5 7 -10 0 -6 22 -46 50 -90 27 -44 47 -80 43 -80 -20 0 -133 127 -133 149
0 5 -3 11 -7 13 -8 3 -18 17 -80 108 -21 30 -40 57 -43 60 -19 17 -103 146
-127 196 -16 32 -49 92 -73 132 -25 41 -53 88 -64 105 -142 243 -159 268 -194
292 -41 28 -74 32 -92 10 -13 -16 -11 -20 36 -82 17 -23 44 -67 60 -97 15 -31
32 -56 36 -56 4 0 8 -5 8 -10 0 -6 5 -16 10 -23 31 -36 128 -193 161 -261 21
-43 64 -111 95 -150 31 -39 61 -81 67 -93 6 -13 14 -23 19 -23 4 0 8 -5 8 -12
0 -6 9 -22 21 -34 30 -32 20 -51 -11 -22 -42 41 -70 77 -127 167 -72 112 -135
205 -145 212 -16 11 -190 256 -242 341 -32 54 -96 45 -96 -13 0 -24 -4 -29
-26 -29 -34 0 -64 -17 -64 -36 0 -26 26 -67 124 -198 52 -69 90 -126 84 -126
-27 0 -84 49 -137 119 -63 82 -86 108 -113 129 -15 12 -21 10 -47 -19 -29 -32
-30 -32 -56 -15 -15 10 -47 24 -73 32 -131 39 -155 -6 -83 -159 23 -48 41 -92
41 -97 0 -6 -18 0 -40 12 -35 20 -41 21 -54 8 -13 -13 -12 -20 4 -52 20 -41
10 -50 -25 -24 -23 16 -52 10 -65 -15 -15 -27 -4 -44 56 -83 51 -34 134 -114
193 -187 14 -18 48 -54 76 -79 27 -25 65 -63 85 -84 19 -22 91 -95 159 -163
68 -68 118 -123 112 -123 -12 0 -145 108 -166 135 -6 7 -30 23 -54 36 -36 18
-44 20 -52 8 -5 -8 -9 -19 -9 -25 0 -11 56 -68 149 -151 29 -26 70 -63 90 -81
20 -18 50 -40 66 -49 33 -17 129 -112 122 -120 -6 -5 -39 11 -59 29 -7 7 -29
25 -48 39 -19 15 -44 36 -55 46 -38 36 -74 55 -94 48 -56 -18 -23 -79 79 -144
78 -50 170 -127 170 -142 0 -18 -28 -8 -61 22 -46 43 -147 117 -312 230 -269
183 -351 247 -510 399 -74 70 -105 91 -160 109 -47 16 -72 1 -62 -38 7 -29 20
-40 92 -82 29 -17 74 -51 100 -75 26 -25 82 -71 123 -103 41 -32 91 -73 110
-90 19 -18 55 -46 80 -64 25 -17 50 -35 55 -39 6 -4 75 -51 155 -105 80 -53
147 -99 150 -102 3 -3 14 -11 24 -17 11 -5 26 -21 35 -34 15 -23 15 -23 -14
-16 -17 4 -48 20 -70 37 -58 43 -157 112 -177 124 -10 5 -50 29 -89 53 -39 23
-76 42 -80 42 -5 0 -9 5 -9 10 0 6 -5 10 -11 10 -6 0 -30 14 -54 30 -24 17
-48 30 -53 30 -5 0 -16 7 -23 17 -12 14 -57 46 -137 98 -27 17 -75 58 -130
112 -57 54 -102 73 -127 53 -26 -22 -16 -45 43 -101 67 -64 143 -121 284 -216
57 -37 105 -70 108 -73 3 -4 15 -13 28 -22 18 -12 20 -17 9 -26 -26 -22 -218
87 -333 188 -57 50 -144 100 -175 100 -23 0 -42 -25 -35 -47 3 -10 34 -36 68
-58 35 -22 90 -62 123 -89 33 -27 79 -57 103 -68 40 -18 62 -42 49 -54 -3 -3
-25 -7 -49 -9 -23 -1 -61 -12 -82 -24 -30 -15 -43 -18 -53 -10 -7 6 -13 9 -13
5 0 -6 -57 23 -126 64 -120 70 -157 80 -178 47 -9 -15 -6 -22 18 -42 16 -13
41 -29 55 -37 58 -29 60 -52 5 -42 -44 7 -83 20 -151 49 -58 24 -65 25 -97 11
-45 -19 -54 -51 -31 -114 27 -71 59 -121 120 -185 30 -33 53 -63 50 -67 -3 -4
-21 -3 -41 3 -39 12 -57 0 -52 -37 3 -18 77 -62 154 -92 16 -7 70 -28 120 -48
51 -20 145 -54 210 -77 126 -43 189 -75 124 -63 -19 4 -64 17 -100 30 -36 12
-103 32 -150 44 -86 22 -156 44 -308 99 -67 23 -89 27 -112 20 -21 -8 -27 -15
-23 -30 6 -21 62 -69 81 -69 7 0 60 -18 119 -41 60 -22 113 -42 118 -43 6 -1
15 -4 20 -7 6 -3 28 -7 50 -8 22 -1 72 -13 110 -27 72 -27 108 -37 280 -81
136 -34 134 -34 144 -14 7 12 5 25 -8 44 -10 15 -21 24 -24 20 -4 -3 -7 -1 -7
5 0 7 -9 12 -20 12 -28 0 -100 23 -100 32 0 5 4 8 10 8 17 0 182 -40 194 -47
6 -4 16 -8 21 -9 6 -1 28 -11 50 -22 l40 -20 -27 -7 c-15 -4 -31 -4 -37 -1
-15 10 -41 -5 -41 -24 0 -33 34 -58 93 -69 72 -13 90 -23 57 -31 -14 -3 -45 0
-70 7 -25 7 -54 15 -65 17 -11 3 -49 12 -85 21 -36 9 -76 18 -90 21 -97 20
-315 88 -336 105 -6 5 -13 7 -16 4 -3 -3 -38 6 -79 20 -250 88 -381 125 -400
115 -22 -12 -24 -37 -6 -62 12 -14 120 -58 146 -58 5 0 22 -5 38 -12 15 -6 33
-12 38 -13 53 -13 253 -89 265 -101 14 -15 13 -16 -7 -10 -12 4 -30 8 -40 10
-10 2 -36 9 -58 14 -39 11 -84 21 -115 26 -8 2 -35 9 -60 16 -25 6 -55 14 -67
16 -12 2 -48 12 -81 22 -64 20 -96 15 -106 -16 -13 -39 23 -74 85 -86 13 -2
42 -7 64 -11 22 -4 45 -10 50 -14 6 -3 15 -6 20 -6 14 -1 49 -9 300 -72 233
-58 243 -60 290 -69 17 -3 62 -12 100 -20 39 -8 79 -17 91 -19 11 -3 48 -14
82 -24 34 -11 92 -23 129 -26 37 -4 75 -10 83 -15 8 -4 23 -6 32 -5 10 2 21
-2 24 -7 5 -8 -17 -9 -70 -5 -42 4 -80 8 -84 11 -4 2 -29 7 -57 10 -27 4 -63
9 -80 12 -16 2 -48 6 -70 8 -48 6 -72 10 -195 40 -91 22 -152 35 -195 41 -38
6 -90 16 -106 21 -10 2 -30 6 -45 9 -16 2 -78 16 -139 30 -60 15 -121 29 -134
31 -14 3 -28 7 -33 10 -8 5 -22 8 -95 23 -50 10 -85 -4 -89 -35 -5 -30 21 -48
96 -68 76 -19 61 -16 270 -60 91 -19 201 -42 245 -52 44 -9 89 -18 100 -19 11
-2 38 -8 60 -13 22 -6 90 -18 150 -27 240 -34 252 -38 221 -64 -16 -14 -85 -7
-186 18 -57 14 -120 18 -185 10 -5 0 -37 11 -70 24 -33 14 -82 28 -110 31 -27
3 -77 8 -110 12 -60 6 -235 42 -310 64 -52 15 -124 22 -153 15 -49 -12 -9 -94
47 -96 33 -1 61 -6 130 -24 31 -8 67 -16 81 -19 14 -3 34 -7 45 -9 11 -3 45
-8 75 -12 30 -4 64 -9 75 -11 10 -2 37 -6 59 -10 22 -3 44 -8 48 -10 4 -3 52
-5 105 -6 77 -1 107 -6 141 -22 34 -16 39 -22 25 -27 -24 -9 -99 -3 -213 15
-106 17 -161 23 -265 31 -68 5 -92 9 -145 21 -87 21 -120 13 -117 -28 2 -22
38 -44 87 -53 19 -3 37 -8 40 -10 4 -3 41 -7 81 -10 41 -2 83 -7 95 -9 12 -2
45 -7 74 -11 101 -13 112 -17 92 -37 -18 -18 -289 -10 -357 10 -47 14 -234 15
-251 1 -21 -17 -17 -42 8 -59 30 -18 37 -20 136 -28 45 -4 83 -11 85 -17 1 -5
-36 -23 -83 -38 -136 -45 -293 -108 -312 -125 -42 -37 -7 -89 66 -97 27 -4 58
-11 68 -16 10 -5 18 -7 18 -4 0 3 8 2 17 -3 10 -6 17 -23 17 -43 1 -32 5 -35
61 -58 54 -23 74 -25 196 -25 105 0 142 3 160 15 26 16 53 14 172 -17 12 -3
28 -6 35 -6 21 -2 13 -15 -12 -20 -14 -3 -62 -3 -108 0 -46 2 -123 3 -173 2
-131 -2 -225 -2 -264 1 -54 4 -79 -43 -43 -79 16 -16 33 -18 108 -17 49 1 109
6 134 10 60 11 70 12 105 2 89 -23 186 -33 318 -31 70 0 130 -2 132 -6 2 -4
-1 -7 -8 -8 -7 0 -23 -3 -37 -7 -14 -4 -110 -9 -215 -11 -104 -2 -212 -6 -240
-9 -54 -7 -121 -8 -226 -3 -55 2 -71 -1 -88 -16 -25 -22 -25 -25 -6 -51 14
-18 29 -19 205 -21 105 0 190 2 190 5 0 5 105 6 120 1 3 -1 31 -2 63 -2 56 0
83 -13 30 -15 -27 0 -121 -10 -193 -19 -19 -3 -112 -6 -206 -7 -184 -2 -204
-7 -204 -54 0 -18 9 -28 37 -40 31 -13 65 -14 203 -9 176 7 206 10 285 19 28
4 75 9 105 12 30 4 66 8 80 10 29 4 130 12 255 21 50 3 95 8 100 11 7 4 7 2 0
-5 -5 -6 -21 -13 -35 -16 -105 -24 -179 -35 -268 -41 -57 -3 -111 -8 -121 -10
-9 -2 -48 -6 -86 -10 -39 -4 -83 -9 -100 -11 -32 -4 -100 -12 -175 -19 -56 -5
-86 -12 -102 -21 -7 -5 -47 -9 -90 -9 -58 -1 -83 -6 -97 -19 -27 -25 -32 -53
-13 -76 26 -31 156 -30 242 3 36 14 68 25 73 25 4 0 24 3 45 6 20 3 73 8 117
11 132 9 208 16 315 30 19 3 55 7 80 10 25 3 86 13 135 22 112 19 123 21 215
28 68 5 73 4 56 -10 -11 -8 -29 -15 -40 -16 -29 -1 -58 -6 -145 -29 -42 -10
-107 -22 -144 -25 -37 -4 -78 -9 -90 -11 -12 -3 -40 -7 -62 -9 -22 -2 -40 -5
-40 -5 0 -4 -79 -15 -200 -26 -38 -4 -83 -8 -100 -10 -16 -2 -61 -6 -100 -9
-137 -10 -200 -15 -220 -19 -11 -3 -28 -5 -38 -5 -26 -1 -43 -45 -29 -75 17
-38 66 -42 170 -16 48 12 119 24 157 26 133 8 177 14 225 29 20 6 37 -12 24
-25 -5 -4 -47 -11 -94 -14 -103 -7 -101 -7 -173 -34 -35 -13 -94 -25 -145 -28
-95 -7 -112 -15 -112 -50 0 -31 36 -53 80 -49 63 6 148 20 180 30 10 3 27 8
37 10 10 2 52 10 93 19 41 9 92 18 114 22 21 3 47 7 58 9 13 3 18 -1 16 -12
-3 -14 -49 -36 -98 -48 -103 -24 -153 -34 -195 -40 -77 -9 -116 -16 -160 -25
-22 -5 -56 -12 -75 -15 -45 -8 -60 -22 -60 -55 0 -46 35 -62 105 -47 17 4 39
9 50 11 11 2 77 18 146 35 143 35 159 37 159 17 0 -9 -20 -19 -53 -26 -28 -7
-92 -25 -142 -40 -49 -16 -103 -30 -120 -33 -48 -8 -66 -18 -75 -43 -21 -55
16 -70 117 -44 74 18 95 25 133 44 33 16 55 15 55 -4 0 -19 -33 -34 -133 -61
-90 -24 -119 -47 -101 -81 6 -10 23 -21 40 -25 16 -3 32 -9 34 -13 8 -13 -25
-40 -48 -40 -12 0 -45 -11 -74 -24 -80 -37 -83 -84 -8 -115 11 -5 52 -12 90
-16 100 -11 119 -13 127 -14 3 -1 -7 -14 -23 -30 -33 -34 -35 -43 -13 -65 24
-24 38 -20 156 40 61 30 112 53 115 51 2 -3 -4 -10 -14 -16 -10 -5 -34 -19
-53 -30 -19 -11 -64 -35 -98 -52 -70 -35 -80 -48 -64 -85 17 -35 56 -31 143
16 41 22 130 69 199 105 69 36 159 91 200 121 188 141 342 226 364 203 6 -6 6
-12 0 -17 -25 -23 -353 -237 -454 -297 -63 -38 -146 -90 -185 -116 -38 -25
-86 -52 -106 -58 -77 -25 -102 -90 -47 -121 26 -14 31 -13 73 9 38 20 158 104
201 139 6 5 20 13 31 16 12 4 27 13 33 21 7 8 21 15 31 15 11 0 19 4 19 8 0 4
12 15 27 25 16 9 46 32 68 51 21 20 57 44 80 54 125 59 161 80 275 163 182
132 239 170 258 174 9 2 22 4 27 5 22 5 35 -1 35 -15 0 -8 -4 -15 -8 -15 -9 0
-154 -90 -162 -101 -3 -3 -30 -21 -60 -40 -30 -18 -57 -36 -60 -39 -3 -3 -23
-17 -45 -30 -22 -13 -93 -59 -159 -102 -65 -43 -122 -78 -126 -78 -5 0 -10 -3
-12 -8 -4 -9 -223 -151 -335 -216 -83 -49 -97 -64 -87 -91 21 -54 139 1 448
209 119 80 218 141 221 136 3 -5 -5 -16 -17 -25 -79 -54 -188 -137 -218 -164
-41 -38 -172 -127 -200 -136 -11 -4 -20 -11 -20 -16 0 -5 -6 -9 -12 -9 -7 -1
-47 -24 -88 -53 -80 -56 -93 -82 -59 -113 18 -16 23 -15 86 16 38 18 111 62
163 98 103 70 313 231 318 244 2 4 10 8 17 8 7 0 15 4 17 9 2 5 39 32 83 60
44 28 85 55 90 59 15 12 35 3 28 -13 -3 -8 -21 -25 -41 -37 -40 -24 -70 -48
-178 -145 -85 -77 -324 -251 -413 -300 -71 -40 -141 -102 -141 -125 0 -21 44
-42 73 -34 22 5 175 100 187 115 3 4 68 51 145 106 124 89 264 211 265 232 1
15 74 63 83 54 11 -11 -284 -312 -346 -351 -26 -16 -76 -56 -111 -89 -35 -32
-82 -71 -105 -86 -22 -15 -42 -33 -43 -39 -4 -35 -3 -43 10 -58 17 -21 44 -16
95 17 40 27 183 153 262 231 45 44 59 51 69 35 8 -13 -12 -33 -119 -119 -122
-98 -215 -185 -215 -200 0 -7 9 -21 20 -32 17 -17 24 -19 43 -9 25 14 108 79
119 94 4 5 10 2 13 -7 4 -11 -3 -30 -18 -50 -30 -39 -147 -278 -147 -300 0
-45 112 -58 150 -18 18 19 139 117 210 170 88 66 215 166 238 188 13 12 32 8
32 -6 0 -4 -22 -30 -48 -58 -85 -92 -132 -145 -132 -150 0 -6 -29 -33 -92 -86
-23 -20 -51 -50 -61 -67 -17 -29 -17 -31 3 -51 11 -11 24 -20 29 -20 35 0 196
163 295 298 36 49 86 108 113 133 50 48 88 89 138 153 17 21 37 46 45 56 8 10
28 35 45 56 42 56 154 168 161 162 3 -3 -20 -30 -50 -60 -31 -30 -56 -58 -56
-62 0 -4 -15 -30 -33 -59 -30 -46 -64 -90 -188 -237 -16 -19 -32 -40 -37 -45
-47 -65 -108 -132 -224 -247 -146 -146 -177 -190 -150 -220 34 -40 70 -14 207
147 37 44 73 85 79 90 6 6 31 35 56 65 24 30 70 84 101 120 30 36 116 144 190
240 74 96 151 193 172 215 20 22 46 59 57 83 11 23 24 42 29 42 9 0 115 103
174 168 46 52 50 37 7 -25 -38 -55 -152 -215 -184 -258 -33 -44 -225 -276
-236 -285 -4 -3 -41 -50 -83 -105 -42 -55 -91 -116 -108 -135 -17 -19 -52 -59
-78 -89 -25 -30 -55 -64 -66 -77 -11 -12 -35 -39 -54 -60 -19 -22 -65 -71
-103 -110 -54 -57 -68 -78 -68 -102 0 -38 34 -66 61 -52 41 22 219 217 219
239 0 6 45 57 100 113 55 56 122 134 148 173 26 38 77 99 113 135 36 36 77 85
92 110 14 25 47 67 72 93 25 27 62 74 83 105 20 31 39 59 42 62 3 3 20 28 37
55 40 62 100 131 108 123 8 -8 -27 -77 -54 -105 -11 -12 -42 -57 -68 -100 -40
-68 -148 -225 -178 -260 -5 -6 -26 -35 -45 -63 -19 -28 -52 -74 -73 -103 -21
-29 -46 -63 -55 -76 -9 -13 -22 -28 -27 -35 -45 -49 -215 -267 -215 -276 0 -5
-4 -10 -9 -10 -5 0 -12 -9 -16 -19 -3 -11 -41 -55 -85 -98 -43 -43 -79 -85
-81 -93 -5 -25 12 -60 29 -61 47 -3 78 20 140 106 20 28 39 52 42 55 9 7 182
233 197 256 7 10 31 46 53 79 23 33 66 97 96 142 30 46 64 88 75 94 19 10 20
8 16 -21 -6 -33 -42 -108 -86 -175 -14 -22 -28 -45 -31 -50 -3 -6 -43 -64 -90
-129 -47 -64 -93 -132 -103 -149 -26 -44 -119 -167 -150 -197 -39 -39 -44 -75
-14 -95 19 -12 31 -14 44 -7 17 10 63 58 63 66 0 9 106 164 187 276 47 63 100
143 120 178 32 58 56 82 68 70 3 -3 8 -31 11 -64 3 -32 12 -82 20 -111 8 -28
14 -61 14 -73 0 -24 -43 -127 -70 -170 -8 -14 -33 -63 -55 -110 -22 -47 -56
-110 -76 -140 -61 -93 -70 -116 -59 -144 22 -60 88 -16 138 92 13 29 26 51 28
49 7 -6 -36 -202 -54 -248 -6 -15 -9 -48 -8 -75 2 -37 9 -52 29 -70 14 -12 34
-21 44 -19 10 2 23 4 29 4 15 1 74 62 74 76 0 29 279 345 305 345 20 0 7 -68
-26 -130 -31 -60 -44 -117 -30 -139 13 -20 55 -6 68 21 6 13 29 61 51 108 44
92 48 105 56 193 3 32 9 64 13 70 4 7 9 17 10 22 1 6 18 55 37 110 30 87 59
185 57 192 0 2 6 20 13 40 7 21 14 58 15 82 3 45 47 159 57 148 3 -3 1 -29 -5
-59 -6 -29 -13 -62 -15 -74 -2 -12 -13 -50 -24 -85 -11 -35 -25 -91 -32 -124
-7 -33 -15 -64 -18 -70 -4 -5 -8 -19 -9 -29 -2 -11 -8 -25 -14 -32 -11 -13
-17 -37 -25 -104 -3 -25 -9 -49 -13 -55 -10 -13 -31 -72 -37 -105 -3 -14 -18
-72 -35 -129 -38 -132 -46 -186 -29 -206 30 -37 85 3 96 70 3 22 10 47 14 55
5 9 14 45 20 80 15 80 18 95 20 95 1 0 3 7 5 15 1 8 10 42 19 75 9 33 19 69
21 79 2 10 9 33 15 50 5 17 14 54 20 81 14 76 17 86 31 135 7 25 14 50 15 55
2 6 15 51 29 100 15 50 33 117 41 150 8 33 17 67 21 75 3 8 8 24 10 34 4 23
11 32 18 24 3 -3 1 -25 -4 -49 -6 -24 -11 -58 -11 -76 0 -17 -9 -48 -21 -67
-25 -43 -49 -116 -55 -171 -4 -34 -17 -100 -39 -199 -3 -10 -11 -42 -19 -70
-8 -28 -17 -67 -19 -86 -9 -63 -27 -133 -74 -287 -44 -146 -45 -153 -29 -178
20 -30 46 -32 71 -5 16 17 57 150 69 225 3 17 15 62 26 100 12 39 24 102 26
140 3 39 9 86 14 105 5 19 12 59 15 88 3 29 10 64 15 78 5 13 8 24 5 24 -2 0
3 16 11 35 8 19 12 35 9 35 -2 0 0 11 5 25 5 13 12 57 15 97 4 40 15 91 26
113 10 22 27 74 38 115 22 90 36 126 50 135 15 9 14 -9 -9 -95 -23 -87 -47
-190 -55 -240 -3 -19 -7 -46 -10 -60 -3 -14 -7 -41 -10 -60 -3 -19 -12 -60
-19 -90 -13 -50 -22 -94 -32 -160 -2 -14 -6 -38 -9 -55 -2 -16 -7 -48 -10 -70
-10 -66 -26 -117 -52 -168 -16 -32 -26 -73 -29 -116 -7 -90 -11 -131 -18 -163
-7 -30 21 -68 49 -68 8 0 31 33 54 78 37 74 48 107 56 169 4 30 5 37 31 183 9
52 18 115 20 140 3 25 9 72 15 105 6 33 13 71 15 85 3 14 10 43 16 65 5 22 12
49 14 60 2 11 10 52 18 90 8 39 18 88 22 110 4 22 9 47 10 55 2 8 6 35 10 60
3 25 8 47 9 50 2 3 6 26 10 50 16 112 20 124 36 114 5 -3 7 -10 3 -15 -3 -5
-7 -44 -10 -87 -3 -42 -7 -88 -9 -102 -3 -14 -7 -66 -11 -116 -5 -77 -4 -92 9
-97 9 -3 20 0 25 6 12 15 32 84 25 90 -8 9 18 88 27 82 13 -8 13 -69 0 -136
-6 -29 -12 -69 -15 -89 -3 -19 -7 -46 -10 -60 -3 -14 -7 -74 -10 -135 -3 -60
-7 -119 -9 -130 -4 -20 -11 -75 -21 -151 -3 -22 -7 -72 -10 -111 -2 -38 -7
-85 -10 -104 -3 -19 -7 -48 -9 -65 -2 -17 -14 -62 -26 -100 -30 -98 -32 -141
-7 -159 51 -36 85 31 101 200 4 39 12 93 22 145 6 32 20 181 29 300 11 155 22
251 30 258 6 7 34 -53 38 -84 2 -16 -2 -47 -9 -70 -17 -57 -23 -116 -29 -267
-3 -71 -7 -132 -10 -136 -2 -4 -7 -39 -10 -77 -3 -39 -8 -86 -10 -105 -20
-136 -18 -182 10 -193 33 -12 52 14 60 84 1 8 5 33 9 55 10 55 17 170 20 300
4 144 4 151 15 139 23 -24 32 -83 20 -126 -6 -24 -13 -56 -16 -73 -6 -45 -10
-297 -5 -323 9 -46 52 -38 58 10 1 13 3 23 4 23 2 0 7 66 9 120 1 34 3 37 12
22 6 -11 13 -33 16 -50 2 -18 15 -74 28 -125 32 -129 70 -159 140 -111 41 28
56 63 61 145 5 69 26 134 43 134 6 0 10 -25 9 -57 -1 -85 0 -90 21 -96 24 -6
56 26 48 47 -3 8 -3 17 1 20 10 11 13 38 12 96 -6 195 1 470 11 476 19 11 23
-7 25 -99 2 -88 4 -115 20 -307 10 -108 10 -123 0 -192 -9 -70 11 -121 47
-116 33 5 44 54 41 177 -3 144 -21 409 -29 421 -2 3 -6 60 -10 126 -5 114 -12
188 -19 230 -2 10 2 37 8 59 l12 40 8 -45 c5 -25 11 -52 13 -60 2 -8 6 -58 8
-110 3 -80 19 -232 30 -291 3 -14 8 -85 21 -259 2 -36 6 -74 8 -85 2 -11 7
-51 10 -90 9 -91 13 -102 36 -108 36 -9 52 25 50 105 0 40 -2 85 -4 99 -4 26
8 58 18 48 3 -2 7 -36 10 -74 5 -84 10 -104 30 -143 17 -33 35 -35 65 -8 17
16 19 29 16 124 -2 95 -6 132 -19 222 -5 31 -16 97 -22 130 -2 14 -7 41 -10
60 -3 19 -7 46 -9 60 -3 14 -7 56 -11 95 -4 38 -8 72 -10 76 -1 3 -6 51 -9
107 -7 96 -9 133 -18 227 -2 23 -1 50 3 60 6 18 8 18 20 -4 7 -13 14 -47 16
-75 5 -89 24 -202 44 -271 16 -53 30 -150 45 -315 9 -95 16 -156 20 -175 3
-11 7 -36 9 -55 3 -19 8 -55 11 -80 12 -86 21 -113 41 -127 18 -12 24 -11 43
4 25 21 28 58 12 143 -6 30 -13 73 -16 95 -3 22 -8 53 -11 68 -3 15 -7 44 -9
65 -2 20 -6 48 -9 62 -3 13 -8 42 -12 65 -3 22 -10 60 -16 85 -13 61 -15 72
-22 111 -3 19 -13 61 -22 94 -10 33 -18 89 -19 125 -2 66 -10 110 -24 139 -4
9 -9 36 -10 61 -2 46 -19 117 -31 135 -13 18 -21 65 -11 65 17 0 50 -56 61
-106 14 -59 19 -93 25 -159 5 -65 18 -106 50 -161 17 -29 29 -69 35 -121 11
-81 16 -113 24 -141 3 -9 8 -42 11 -72 3 -30 8 -66 11 -80 8 -43 15 -93 20
-150 4 -53 16 -140 19 -150 4 -12 19 -116 17 -121 0 -4 7 -14 18 -24 33 -30
69 5 72 70 0 25 -11 125 -17 145 -2 8 -7 40 -10 70 -4 30 -11 77 -16 105 -5
27 -12 66 -15 85 -2 19 -7 44 -9 56 -3 12 -7 39 -11 60 -3 21 -10 47 -15 57
-7 13 -6 19 6 23 33 13 50 -25 70 -159 3 -20 7 -52 10 -70 3 -17 7 -48 9 -67
6 -42 16 -106 22 -140 2 -14 7 -65 9 -115 7 -124 27 -156 82 -132 44 19 51
146 14 247 -16 43 -71 306 -71 338 0 5 9 12 19 15 17 4 26 -4 36 -33 1 -3 4
-12 8 -20 17 -42 56 -212 62 -270 13 -110 41 -180 73 -180 48 1 55 37 30 153
-11 50 -24 112 -29 137 -5 25 -12 53 -15 63 -3 11 0 17 10 17 15 0 44 -53 51
-95 7 -36 33 -130 44 -157 12 -32 23 -35 72 -23 21 5 35 -4 94 -65 64 -66 113
-102 132 -99 45 7 68 86 59 202 -5 68 4 140 19 155 4 4 14 -2 24 -14 9 -12 26
-26 38 -32 18 -10 25 -8 45 17 20 23 28 26 48 19 31 -11 98 13 129 46 12 12
23 36 25 53 5 34 -31 128 -66 176 -13 17 -37 61 -52 97 -16 36 -37 81 -48 100
-11 19 -39 69 -61 110 -22 41 -58 98 -79 126 -21 28 -38 55 -38 60 0 6 -20 50
-46 98 -42 82 -49 116 -25 116 10 0 38 -46 111 -185 23 -44 64 -116 90 -160
83 -140 190 -354 200 -402 11 -48 55 -118 79 -128 20 -8 50 25 57 61 4 23 -17
73 -108 254 -62 124 -115 227 -118 230 -3 3 -23 41 -46 85 -23 44 -70 129
-105 188 -35 60 -69 117 -74 127 -6 10 -30 40 -54 67 -48 53 -89 128 -77 140
4 5 17 -3 27 -17 106 -135 284 -423 310 -500 7 -19 29 -58 50 -86 20 -28 65
-104 99 -170 79 -150 136 -228 172 -232 18 -2 28 2 32 15 9 30 3 47 -54 144
-79 137 -121 221 -123 250 -1 14 -20 47 -43 73 -41 48 -134 203 -134 224 0 19
25 14 47 -10 12 -13 54 -79 93 -147 39 -69 83 -143 98 -165 15 -23 36 -59 47
-81 11 -22 22 -42 25 -45 3 -3 20 -34 38 -70 58 -112 101 -149 136 -114 24 23
11 76 -36 150 -24 38 -70 114 -102 169 -31 55 -73 126 -93 158 -23 38 -32 62
-26 68 15 15 53 -29 93 -105 18 -37 42 -74 52 -83 10 -9 18 -22 18 -30 0 -7 4
-13 8 -13 9 0 112 -153 112 -167 0 -6 9 -18 20 -28 17 -15 24 -16 45 -7 14 6
26 16 26 22 1 5 2 16 3 23 1 6 -13 41 -31 76 -19 35 -32 69 -30 75 2 6 30 -15
61 -47 66 -66 90 -79 126 -64 48 19 62 17 128 -22 65 -38 88 -43 125 -27 25
12 22 30 -28 162 -25 65 -45 122 -45 127 0 5 -7 15 -15 24 -23 23 -13 25 29 8
44 -19 52 -15 58 26 4 27 -1 35 -37 62 -23 17 -59 53 -81 80 -52 65 -162 177
-174 177 -6 0 -10 7 -10 15 0 12 4 14 19 5 23 -12 57 -8 72 7 19 19 1 61 -38
90 -20 15 -61 53 -92 83 -31 30 -76 71 -101 90 -25 19 -49 39 -55 45 -18 19
-37 57 -31 62 9 9 71 -43 111 -92 20 -24 57 -56 82 -71 25 -14 79 -61 121
-103 43 -43 111 -105 152 -138 41 -33 91 -76 111 -95 48 -47 73 -60 87 -46 7
7 12 19 12 27 0 30 -63 108 -122 151 -33 24 -99 83 -146 130 -91 90 -240 220
-252 220 -5 0 -10 7 -14 15 -16 42 348 -241 497 -387 55 -54 108 -100 118
-103 23 -8 52 34 42 60 -3 10 -36 46 -71 79 -36 34 -86 81 -111 105 -25 24
-89 76 -141 114 -102 76 -132 102 -244 213 -39 38 -96 88 -126 109 -30 22 -83
67 -117 102 -34 35 -87 78 -117 98 -30 19 -76 58 -103 86 -26 29 -58 63 -71
75 -13 13 -18 24 -11 24 18 0 107 -73 218 -180 14 -13 64 -53 111 -87 47 -34
96 -72 110 -83 14 -11 104 -84 201 -163 96 -78 198 -163 225 -189 27 -26 75
-66 107 -88 31 -23 57 -46 57 -51 0 -23 61 -80 103 -96 53 -19 67 -16 82 21
18 41 12 59 -23 82 -37 24 -466 374 -482 393 -3 4 -30 26 -60 50 -30 23 -55
48 -55 54 0 24 25 15 83 -32 59 -47 124 -92 202 -139 19 -11 42 -29 51 -39 30
-34 209 -178 257 -207 18 -11 62 20 62 44 0 23 -13 35 -237 227 -62 53 -113
100 -113 104 0 17 19 17 51 1 45 -23 223 -165 274 -218 61 -64 108 -81 135
-49 11 13 10 21 -1 43 -22 42 -23 43 -197 157 -28 18 -72 64 -72 75 0 21 38 8
130 -45 118 -68 200 -95 312 -102 125 -7 199 21 250 95 27 39 12 58 -77 101
-78 37 -125 77 -125 108 0 7 7 25 16 38 30 45 12 62 -132 131 -74 35 -136 64
-138 64 -2 0 -25 10 -52 22 -27 12 -51 22 -54 23 -3 0 -11 4 -17 8 -7 5 -13 6
-13 2 0 -8 -61 24 -83 43 -18 16 -18 16 0 23 10 3 34 1 53 -5 44 -15 77 -10
90 14 15 29 3 46 -43 60 -23 8 -48 18 -54 23 -7 5 -13 7 -13 4 0 -3 -15 -1
-32 4 -18 6 -40 12 -50 14 -28 6 -72 32 -92 54 -22 24 -16 37 11 23 10 -6 43
-13 73 -17 30 -4 98 -22 150 -40 169 -59 274 -93 320 -105 25 -6 63 -20 85
-31 71 -34 123 -17 121 41 -1 19 -11 30 -46 47 -46 23 -132 47 -205 58 -54 8
-117 27 -205 63 -88 36 -124 47 -205 62 -33 7 -64 15 -70 18 -5 4 -12 7 -15 8
-34 5 -97 29 -102 38 -13 20 -9 25 28 32 27 5 42 2 62 -13 23 -16 42 -24 92
-38 3 0 32 -9 65 -19 33 -10 67 -20 75 -21 19 -4 230 -73 250 -82 8 -3 20 -7
25 -8 6 -2 28 -8 50 -13 50 -14 85 -20 156 -26 64 -6 85 7 75 47 -7 30 -51 49
-186 82 -113 27 -216 54 -240 63 -8 3 -18 6 -22 7 -5 2 -9 3 -10 5 -2 1 -11 3
-20 5 -9 2 -47 11 -84 20 -37 9 -75 18 -83 20 -117 27 -158 36 -171 40 -22 7
-102 26 -125 31 -19 3 -74 16 -85 19 -3 1 -14 5 -25 9 -11 4 -32 12 -47 18
-14 5 -28 19 -31 30 -4 12 -1 18 6 15 7 -2 37 -12 67 -22 30 -10 60 -21 65
-25 12 -9 150 -44 259 -65 44 -9 82 -17 85 -19 3 -2 24 -7 46 -10 22 -4 47 -8
55 -11 8 -2 33 -6 55 -10 89 -13 234 -46 271 -61 21 -9 48 -18 59 -19 11 -2
38 -6 60 -10 22 -4 45 -8 52 -9 7 -1 16 -5 19 -9 14 -14 61 -7 78 12 30 33 28
58 -7 83 -18 12 -34 23 -36 24 -2 2 10 15 28 29 36 31 36 60 0 87 -17 13 -51
19 -117 24 -52 3 -104 7 -115 10 -12 2 -35 7 -52 9 -16 3 -50 12 -75 19 -40
13 -57 17 -120 33 -8 2 -31 5 -50 8 -19 2 -45 6 -56 9 -168 37 -233 49 -323
61 -49 6 -71 15 -71 30 0 11 12 13 48 10 57 -5 126 -15 155 -21 32 -7 75 -13
137 -19 30 -3 66 -8 80 -11 14 -2 35 -6 46 -8 12 -3 57 -16 101 -29 84 -27
116 -33 228 -42 75 -6 83 -7 133 -19 42 -10 88 8 96 36 3 12 -1 35 -8 53 -11
26 -11 36 0 56 19 35 17 72 -5 86 -17 11 -103 30 -175 39 -16 2 -45 8 -65 14
-20 5 -58 10 -84 11 -49 3 -69 15 -47 29 13 8 38 6 130 -10 54 -9 188 -22 242
-22 15 -1 34 5 43 12 19 16 19 46 0 54 -22 8 -18 40 7 56 56 37 108 98 108
126 0 54 -22 70 -150 111 -135 42 -147 57 -68 82 51 16 64 34 49 72 -7 19 -4
29 10 45 27 29 31 62 10 83 -14 14 -32 17 -97 15 -43 -1 -97 -5 -119 -8 -79
-12 -204 -25 -305 -31 -41 -2 -91 -6 -110 -9 -109 -16 -148 -19 -278 -21 -78
-1 -153 0 -167 3 -49 9 -24 17 58 19 45 1 116 6 157 12 41 6 107 14 145 17 39
3 73 8 76 10 4 2 24 6 45 9 22 4 48 9 59 12 32 10 61 12 240 17 94 3 170 5
170 6 0 1 24 2 53 4 38 2 59 8 74 23 28 28 18 67 -22 88 -27 14 -42 45 -22 45
9 0 39 51 37 65 -2 29 -24 47 -56 47 -35 1 -144 -16 -144 -22 0 -2 -25 -7
-100 -20 -89 -14 -100 -16 -156 -29 -25 -6 -76 -13 -114 -16 -57 -4 -119 -14
-265 -42 -14 -3 -34 -6 -45 -8 -11 -1 -40 -5 -65 -9 -64 -10 -113 -15 -210
-22 -146 -10 -160 -10 -160 -2 0 4 3 8 8 9 4 0 16 2 27 5 11 2 34 6 50 8 17 3
41 8 55 11 27 7 26 6 85 23 61 16 115 24 170 23 54 0 212 35 233 51 22 18 14
46 -15 52 -33 7 -113 2 -203 -13 -36 -6 -78 -13 -95 -16 -61 -10 -92 -14 -150
-20 -33 -4 -103 -16 -155 -27 -52 -11 -99 -21 -104 -21 -5 -1 -10 3 -13 10 -7
20 103 69 202 89 11 2 72 6 135 9 148 5 193 11 277 36 75 22 164 45 203 53
165 30 461 114 485 137 18 18 19 21 5 47 -22 38 -61 39 -156 2 -43 -17 -86
-33 -94 -35 -58 -16 -99 -26 -126 -30 -16 -2 -48 -12 -70 -21 -44 -19 -131
-44 -154 -44 -8 0 1 16 24 39 27 28 49 40 79 45 80 12 92 15 167 31 87 19 198
62 290 112 80 44 100 61 100 85 0 42 -39 36 -175 -27 -79 -37 -218 -85 -246
-85 -21 0 -31 13 -24 32 6 14 60 48 76 48 39 0 276 136 327 186 66 67 32 123
-83 139 -28 3 -66 8 -85 11 -64 8 -100 24 -100 45 0 10 4 19 9 19 4 0 20 12
35 26 20 20 24 33 20 53 -14 58 -24 58 -141 1 -152 -75 -225 -102 -237 -90 -5
5 -8 12 -5 14 2 2 69 36 149 75 145 71 200 114 200 153 0 21 -42 40 -67 31
-10 -4 -43 -23 -74 -44 -110 -74 -465 -277 -515 -295 -29 -10 -59 -14 -70 -10
-18 7 -17 8 6 26 14 10 26 17 28 15 5 -5 72 37 184 115 51 36 101 70 110 75
40 25 274 190 291 206 26 24 19 61 -15 73 -31 11 -28 13 -259 -159 -82 -60
-171 -126 -199 -145 -28 -19 -56 -39 -63 -45 -40 -33 -222 -122 -257 -127 -19
-2 -26 2 -28 18 -3 21 25 42 265 196 48 31 138 93 198 137 61 45 120 89 133
98 13 9 33 25 45 36 12 11 38 31 57 46 47 35 55 43 68 67 12 23 6 36 -23 51
-46 24 -96 -6 -175 -103 -14 -17 -48 -46 -77 -65 -28 -19 -90 -63 -138 -99
-218 -162 -253 -188 -303 -218 -29 -18 -57 -32 -62 -32 -6 0 -10 -4 -10 -10 0
-5 -5 -10 -11 -10 -6 0 -42 -20 -81 -46 -39 -25 -73 -42 -77 -39 -7 8 69 77
107 96 15 8 29 17 32 20 3 3 23 17 45 31 22 14 67 51 100 82 33 32 103 90 155
129 52 39 97 75 98 79 2 4 7 8 12 8 4 0 23 14 41 31 19 18 68 58 109 89 135
103 174 162 130 197 -26 21 -39 15 -108 -51 -85 -82 -113 -107 -187 -164 -33
-25 -62 -49 -65 -52 -9 -10 -145 -117 -200 -157 -30 -23 -75 -59 -98 -82 -24
-23 -49 -38 -54 -34 -12 6 92 111 222 223 110 95 410 398 410 414 0 7 -9 24
-19 37 -18 22 -21 23 -49 9 -17 -8 -105 -87 -196 -175 -302 -292 -426 -407
-494 -458 -37 -28 -124 -108 -194 -179 -114 -115 -148 -143 -148 -121 0 7 137
148 465 477 110 111 222 229 250 261 27 33 54 65 60 71 5 6 28 33 50 59 22 27
55 64 74 84 61 65 71 92 48 129 -16 24 -41 11 -106 -57 -96 -101 -120 -128
-189 -213 -72 -89 -183 -203 -229 -236 -30 -22 -33 -22 -33 -5 0 10 11 32 24
48 117 142 235 298 293 386 39 59 82 122 97 141 30 40 33 60 11 82 -31 31 -66
0 -140 -122 -27 -45 -68 -101 -92 -125 -24 -23 -61 -69 -82 -103 -22 -34 -74
-97 -115 -140 l-76 -79 17 45 c9 25 29 67 45 93 15 26 28 51 28 55 0 4 12 16
27 27 60 44 89 76 113 121 14 27 36 60 49 74 40 43 141 201 141 221 0 25 -12
24 -30 -2 -8 -11 -34 -42 -58 -67 -48 -52 -102 -126 -102 -140 0 -13 -39 -46
-46 -39 -9 9 5 44 30 75 43 51 149 241 160 284 11 47 -19 88 -69 93 -17 2 -98
-42 -130 -70 -16 -14 -43 -33 -58 -41 -28 -15 -29 -15 -22 8 4 13 19 39 34 58
59 75 69 125 26 136 -32 8 -48 -6 -82 -67 -14 -27 -30 -49 -35 -49 -4 0 -8 -4
-8 -10 0 -5 -6 -18 -14 -27 -8 -10 -62 -79 -120 -154 -101 -131 -129 -159
-141 -139 -6 9 11 49 24 60 6 5 34 47 77 115 10 17 29 50 43 75 13 25 38 66
57 92 38 53 73 120 84 160 18 61 -54 63 -83 2 -20 -41 -122 -203 -194 -308
-27 -39 -60 -91 -74 -117 -32 -59 -71 -109 -80 -103 -8 5 56 141 96 205 15 22
53 90 86 150 33 60 84 147 114 193 57 88 68 129 37 145 -24 13 -54 8 -64 -10
-4 -8 -36 -64 -72 -124 -35 -61 -85 -151 -111 -199 -48 -92 -121 -214 -209
-351 -29 -44 -60 -97 -70 -119 -13 -28 -21 -35 -29 -27 -9 9 -4 25 17 64 38
70 195 376 196 382 2 10 72 163 92 200 12 22 34 56 49 76 15 19 41 61 57 92
26 50 28 58 15 77 -16 23 -39 26 -57 8 -15 -15 -130 -214 -161 -278 -12 -25
-35 -72 -50 -104 -15 -32 -54 -103 -86 -158 -33 -54 -59 -103 -59 -108 0 -6
-7 -10 -15 -10 -20 0 -19 4 10 50 14 22 36 69 49 104 23 61 78 164 201 382 66
115 72 137 44 165 -11 11 -27 18 -36 15 -8 -3 -18 -6 -23 -6 -4 0 -42 -63 -85
-141 -42 -77 -80 -138 -82 -135 -10 10 61 169 108 243 12 20 12 25 -3 40 -15
14 -21 15 -41 4 -14 -7 -34 -30 -46 -51 -25 -45 -55 -74 -45 -44 4 10 22 51
40 91 34 71 36 96 8 107 -41 16 -84 -42 -189 -256 -37 -76 -72 -138 -76 -138
-12 0 -11 37 1 45 6 3 10 13 10 21 0 8 32 79 70 158 39 78 70 152 70 163 0 11
-10 24 -23 30 -28 13 -43 -1 -69 -69 -10 -28 -33 -70 -49 -94 -17 -24 -38 -61
-47 -82 -22 -47 -65 -112 -74 -112 -13 0 -9 51 7 78 8 15 35 78 60 141 25 63
54 126 65 141 16 22 17 30 7 50 -25 49 -70 27 -104 -50 -9 -19 -17 -40 -18
-47 -9 -39 -28 -83 -42 -95 -14 -12 -15 -8 -10 37 12 105 42 194 85 247 8 9
15 36 15 59 1 52 -35 89 -89 89 -40 0 -121 -50 -201 -125 -58 -54 -82 -58 -74
-12 1 4 3 18 5 30 4 27 -10 47 -34 47 -28 0 -64 -85 -106 -250 -15 -58 -31
-113 -36 -123 -5 -10 -11 -46 -14 -80 -8 -85 -60 -375 -76 -414 -7 -20 -19
-33 -30 -33 -24 0 -24 49 1 120 20 58 25 82 46 215 4 28 13 77 21 110 20 91
24 116 29 165 9 95 37 206 54 220 14 11 30 61 25 75 -9 22 -41 37 -64 30 -10
-3 -23 -20 -29 -38 -14 -45 -39 -145 -46 -187 -3 -19 -10 -54 -16 -78 -5 -23
-12 -59 -15 -80 -3 -20 -7 -45 -10 -54 -5 -18 -8 -30 -18 -98 -3 -19 -8 -47
-11 -63 -13 -75 -25 -147 -30 -192 -10 -76 -35 -197 -47 -220 -50 -97 -87 -42
-57 85 6 25 12 52 14 60 2 8 8 27 14 43 6 15 9 27 6 27 -2 0 2 18 10 41 8 23
12 45 9 50 -3 5 0 9 5 9 6 0 10 3 9 8 -1 4 4 39 11 79 7 39 14 89 16 110 2 32
16 125 20 143 1 3 5 23 9 45 8 43 15 68 43 155 9 30 18 57 18 60 1 3 5 13 10
24 4 10 9 37 9 59 1 46 -22 69 -51 51 -17 -11 -51 -88 -57 -129 -1 -11 -8 -36
-14 -55 -21 -65 -44 -195 -57 -309 -7 -65 -32 -158 -46 -166 -13 -9 0 227 16
285 2 8 7 29 10 45 2 17 7 41 11 55 3 14 7 39 9 55 7 49 12 67 33 115 21 51
34 95 37 127 3 31 -28 57 -58 49 -26 -6 -40 -34 -53 -101 -4 -22 -8 -42 -9
-45 0 -3 -5 -27 -10 -55 -4 -27 -9 -55 -10 -61 -3 -14 -14 -105 -20 -169 -3
-27 -8 -63 -12 -80 -9 -38 -10 -45 -11 -73 -1 -13 -6 -21 -10 -18 -14 9 -4
298 13 386 3 14 8 59 11 100 5 69 4 76 -15 88 -38 23 -70 -13 -88 -98 -6 -29
-13 -178 -18 -370 -2 -107 -6 -206 -9 -220 -3 -14 -8 -36 -11 -50 -10 -44 -14
-83 -15 -156 -1 -119 -26 -171 -46 -96 -13 48 -10 127 12 302 3 19 7 141 9
270 4 219 6 263 20 395 5 53 -4 73 -42 93 -19 10 -24 8 -42 -14 -17 -21 -21
-42 -22 -103 0 -42 -3 -96 -5 -121 -4 -42 -10 -271 -18 -730 -4 -223 -4 -215
-12 -207 -16 16 -24 873 -9 952 5 22 8 70 8 107 1 75 -18 110 -54 101 -22 -6
-51 -42 -43 -55 7 -12 6 -612 -2 -631 -6 -17 -33 -24 -35 -9 -3 23 -7 66 -13
137 -4 44 -9 96 -11 115 -3 19 -7 55 -11 80 -3 25 -7 61 -10 80 -8 68 -5 208
5 247 17 64 -3 113 -47 113 -38 0 -53 -47 -38 -117 9 -43 -10 -23 -28 30 -29
83 -74 106 -138 72z m-855 -412 c35 -133 60 -247 71 -325 8 -50 -13 -51 -49
-3 -23 29 -27 46 -30 112 -1 43 -5 89 -8 103 -6 26 -13 77 -22 165 -3 28 -8
58 -11 68 -3 9 -1 17 4 17 5 0 25 -62 45 -137z m870 -103 c-8 -74 -8 -120 2
-215 10 -100 12 -195 4 -195 -6 0 -5 -52 5 -449 7 -268 5 -305 -22 -316 -31
-13 -87 -25 -144 -31 -81 -9 -92 2 -83 80 3 34 11 81 16 106 6 25 12 52 14 60
2 8 13 58 25 110 12 52 24 104 26 115 3 11 6 31 8 45 2 14 11 63 20 110 18
100 23 131 30 185 3 22 7 49 10 60 4 23 18 128 21 165 2 14 12 65 24 114 20
84 27 116 31 141 1 6 5 1 10 -10 4 -11 6 -45 3 -75z m1364 52 c-7 -15 -27 -57
-45 -95 -44 -91 -63 -180 -68 -312 -5 -149 -13 -235 -28 -315 -12 -61 -61
-149 -121 -215 -29 -33 -64 -80 -76 -105 -12 -25 -25 -47 -29 -50 -3 -3 -23
-41 -44 -85 -91 -190 -80 -173 -115 -180 -50 -9 -211 52 -211 81 0 9 15 33 33
54 17 21 53 80 79 131 51 102 81 136 203 233 101 79 192 178 216 230 21 49 27
90 34 221 7 150 19 200 77 314 58 114 72 133 93 125 12 -5 12 -10 2 -32z
m-1241 -277 c3 -105 7 -228 9 -275 12 -272 6 -541 -11 -595 l-12 -40 -3 60
c-1 33 -3 284 -4 558 -2 497 9 651 21 292z m-1284 134 c13 -81 19 -102 47
-168 30 -72 100 -191 135 -231 19 -22 19 -23 1 -10 -58 44 -143 161 -178 247
-28 69 -46 168 -38 209 1 3 7 4 13 2 7 -3 16 -25 20 -49z m1843 -222 c-2 -7
-6 -37 -9 -67 -7 -62 -15 -110 -21 -121 -3 -4 -7 -24 -10 -45 -3 -22 -10 -55
-15 -74 -12 -45 -3 84 10 145 5 22 11 56 15 75 3 19 8 49 12 65 4 17 6 34 5
38 -2 5 2 6 7 2 6 -3 8 -11 6 -18z m667 -181 c-3 -6 -5 -28 -5 -50 2 -72 -26
-187 -63 -268 -21 -43 -41 -78 -46 -78 -4 0 -8 -4 -8 -9 0 -13 -82 -155 -92
-159 -4 -2 -8 -8 -8 -14 0 -5 -20 -37 -44 -71 -54 -78 -67 -102 -73 -141 -6
-38 -20 -55 -28 -34 -16 42 63 201 175 353 111 150 146 241 165 430 3 33 9 69
12 80 6 18 7 18 13 -5 4 -14 5 -29 2 -34z m-1115 -38 c10 -17 13 -497 2 -503
-11 -7 -20 26 -24 92 -1 32 -7 99 -11 148 -10 113 -11 235 -2 258 9 20 24 22
35 5z m-1237 -118 c114 -170 111 -162 114 -370 2 -135 7 -170 31 -250 1 -3 7
-18 14 -35 36 -83 36 -81 -38 -125 -77 -46 -98 -49 -130 -18 -49 45 -105 220
-104 323 1 62 17 184 31 240 25 94 26 156 4 240 -15 62 -19 115 -7 115 3 0 41
-54 85 -120z m190 -89 c11 -29 23 -76 25 -105 3 -28 7 -76 9 -107 3 -30 10
-76 16 -102 8 -36 7 -54 -2 -70 -11 -22 -12 -22 -19 6 -4 16 -10 80 -14 144
-3 64 -7 119 -10 122 -2 4 -6 20 -9 35 -9 48 -39 119 -73 174 -18 29 -31 58
-27 63 9 15 80 -94 104 -160z m334 42 c13 -78 14 -89 21 -143 4 -30 9 -73 11
-95 2 -22 6 -52 8 -67 2 -16 1 -28 -2 -28 -15 0 -28 37 -31 85 -1 28 -7 73
-12 100 -16 84 -22 185 -11 185 5 0 12 -17 16 -37z m2161 -107 c-25 -53 -45
-99 -45 -101 0 -3 -16 -39 -35 -81 -19 -41 -35 -77 -35 -79 0 -7 -95 -172
-111 -192 -14 -19 -18 -21 -23 -7 -12 31 -6 56 23 92 16 20 43 62 59 92 16 30
45 80 64 110 19 30 43 78 54 105 20 53 84 168 91 162 2 -2 -17 -48 -42 -101z
m-3984 -38 c67 -50 109 -78 115 -78 7 0 157 -100 164 -109 3 -4 178 -122 390
-263 212 -141 397 -268 413 -283 23 -22 25 -29 16 -47 -25 -46 -134 -122 -168
-116 -19 3 -133 111 -546 518 -115 113 -245 232 -288 264 -104 78 -176 145
-156 146 9 0 36 -15 60 -32z m3682 -23 c-9 -19 -20 -35 -25 -35 -4 0 -8 -4 -8
-9 0 -6 -28 -54 -61 -108 -63 -100 -116 -200 -139 -263 -13 -34 -50 -80 -50
-61 0 21 41 141 68 196 16 33 47 83 68 110 37 48 56 75 118 173 31 50 53 48
29 -3z m-2055 -47 c6 -29 14 -69 17 -88 3 -19 7 -46 10 -60 5 -29 16 -130 20
-178 6 -74 -26 14 -45 123 -6 33 -13 94 -16 135 -3 41 -7 87 -9 103 -6 46 11
21 23 -35z m2376 -134 c-57 -120 -147 -279 -164 -289 -12 -8 -3 18 39 105 49
104 171 313 178 306 2 -2 -21 -57 -53 -122z m704 108 c-7 -11 -31 -41 -53 -67
-89 -108 -150 -181 -160 -191 -6 -6 -27 -31 -46 -54 -18 -23 -39 -47 -44 -54
-6 -6 -26 -31 -45 -56 -19 -25 -39 -50 -45 -56 -5 -6 -29 -33 -52 -60 -22 -27
-58 -67 -78 -89 -20 -22 -63 -74 -95 -115 -81 -105 -116 -140 -137 -140 -10 0
-62 43 -115 94 -75 73 -95 99 -91 114 7 26 54 69 123 111 55 34 251 169 260
181 3 3 46 35 95 70 50 35 92 68 93 72 2 4 10 8 17 8 7 0 15 4 17 8 2 5 30 28
63 53 33 24 67 50 75 58 31 30 195 131 213 131 16 0 16 -2 5 -18z m-1043 -170
c-25 -42 -50 -84 -55 -92 -18 -27 -51 -104 -57 -134 -6 -31 -27 -69 -41 -74
-27 -9 6 98 65 213 38 73 113 176 123 170 5 -3 -11 -40 -35 -83z m-3311 -252
c11 -14 -28 22 -87 80 -58 58 -116 119 -128 135 -23 33 183 -174 215 -215z
m2276 -5 c64 -4 146 -15 185 -26 39 -11 85 -22 102 -25 72 -10 153 -36 238
-78 50 -25 118 -55 150 -67 76 -28 152 -77 336 -216 135 -102 211 -172 285
-263 16 -19 36 -43 45 -52 8 -10 35 -50 60 -89 24 -39 64 -98 89 -132 54 -75
154 -260 174 -325 6 -17 2 -20 -26 -19 -29 2 -33 -1 -32 -23 0 -14 8 -51 18
-82 9 -31 19 -67 21 -80 41 -247 63 -328 86 -328 19 0 23 12 21 75 -1 28 -4
51 -18 170 -12 108 39 -15 55 -133 20 -140 27 -316 16 -417 -1 -16 -3 -38 -4
-47 -1 -13 -9 -18 -30 -18 -49 0 -54 -17 -65 -230 -2 -36 -9 -77 -17 -90 -7
-14 -14 -29 -16 -35 -8 -29 -34 -133 -37 -150 -8 -34 -52 -156 -84 -230 -22
-50 -27 -73 -20 -82 15 -18 24 -16 48 9 63 68 -30 -109 -115 -216 -13 -17 -18
-18 -41 -8 -23 11 -29 9 -61 -23 -19 -19 -48 -43 -65 -53 -16 -9 -40 -36 -54
-59 -29 -50 -40 -58 -59 -43 -19 16 -6 35 93 136 42 43 84 92 92 109 8 16 52
89 97 162 98 156 105 172 90 203 -7 12 -15 22 -19 21 -5 0 -14 -1 -21 -1 -8 0
-18 -10 -24 -23 -119 -247 -128 -262 -199 -334 -39 -40 -75 -73 -80 -73 -5 0
-36 -25 -68 -56 -33 -31 -83 -72 -110 -91 -28 -19 -53 -38 -56 -42 -13 -17
-101 -81 -152 -110 -60 -34 -72 -57 -42 -82 19 -15 72 1 120 37 17 13 36 24
41 24 6 0 16 7 23 15 7 8 21 15 31 15 35 0 -75 -103 -161 -150 -44 -25 -80
-48 -80 -52 0 -5 -6 -8 -13 -8 -7 0 -22 -8 -33 -17 -54 -48 -144 -100 -144
-83 0 5 22 25 50 42 52 34 64 62 30 73 -27 9 -155 -31 -185 -58 -47 -42 -1
-90 63 -66 17 7 23 6 20 -3 -3 -7 -32 -23 -65 -36 -61 -23 -77 -39 -67 -66 18
-47 119 -12 377 129 74 40 101 44 36 4 -80 -48 -104 -66 -102 -77 7 -33 -71
-73 -282 -144 -66 -22 -128 -45 -139 -50 -10 -6 -33 -12 -50 -15 -17 -3 -65
-11 -106 -19 -115 -22 -183 -28 -335 -27 -187 0 -295 6 -295 16 0 5 -4 6 -8 3
-10 -6 -138 23 -257 59 -49 15 -94 28 -100 29 -74 14 -262 101 -396 182 -218
131 -329 221 -429 344 -25 30 -67 77 -94 105 -28 27 -76 90 -107 140 -32 49
-62 95 -67 101 -14 16 -72 120 -109 197 -46 94 -122 299 -139 377 -29 130 -36
166 -40 195 -2 17 -6 41 -10 55 -16 69 6 544 32 683 16 84 85 302 130 411 35
84 175 328 229 401 147 196 266 309 460 440 215 144 307 191 520 264 186 64
214 71 375 85 69 7 155 18 158 21 4 4 187 -2 332 -10z m-2347 -85 c61 -52 127
-129 127 -149 0 -13 -27 9 -79 61 -53 54 -91 124 -48 88z m335 -167 c65 -65
142 -136 170 -158 48 -38 64 -67 43 -80 -11 -6 -67 40 -121 99 -19 22 -79 83
-134 137 -56 55 -96 102 -92 108 4 6 9 11 11 11 2 0 57 -53 123 -117z m3862
65 c0 -7 -39 -65 -86 -128 -120 -161 -146 -192 -151 -186 -12 12 73 151 142
233 25 31 33 40 49 66 19 28 46 37 46 15z m-150 -22 c0 -8 -10 -26 -22 -41
-13 -14 -39 -48 -58 -76 -53 -77 -142 -192 -160 -206 -20 -17 -40 -16 -40 1 0
15 83 118 156 193 22 24 58 65 80 93 44 55 44 55 44 36z m100 -233 c-17 -30
-51 -75 -75 -99 -23 -24 -62 -76 -85 -116 -50 -85 -48 -83 -55 -76 -12 11 91
199 125 228 3 3 21 25 40 50 19 25 43 54 52 64 10 11 19 25 19 30 1 6 3 3 6
-7 2 -10 -10 -43 -27 -74z m-3804 -11 c92 -88 122 -128 102 -135 -23 -8 -67
33 -119 109 -28 42 -57 78 -65 81 -14 5 -20 23 -6 23 4 0 43 -35 88 -78z m-91
-89 c22 -25 52 -60 67 -77 25 -28 28 -46 8 -46 -28 0 -130 122 -130 157 0 23
14 14 55 -34z m-824 -28 c56 -13 99 -29 234 -87 142 -62 290 -85 423 -68 84
11 155 -19 197 -83 18 -28 18 -28 -21 -103 -46 -90 -55 -98 -102 -98 -46 1
-160 12 -189 19 -13 3 -31 7 -41 9 -53 12 -156 70 -252 141 -63 47 -100 65
-202 101 -165 57 -189 61 -363 67 -220 7 -297 14 -352 32 -44 14 -22 23 50 21
44 -2 104 5 148 15 41 10 101 21 134 24 33 4 78 10 100 14 64 12 178 10 236
-4z m6017 -201 c-7 -7 -26 -15 -41 -18 -54 -9 -102 -29 -192 -77 -108 -57
-247 -119 -284 -125 -14 -3 -42 -9 -61 -13 -19 -4 -55 -6 -80 -4 -146 9 -241
8 -295 -4 -79 -18 -102 -27 -223 -95 -120 -67 -125 -66 -167 14 -64 121 -55
146 80 222 33 19 85 42 115 51 63 19 284 29 346 15 21 -5 56 -11 76 -14 21 -3
57 -10 80 -16 44 -9 254 -7 297 3 13 4 55 18 93 33 37 14 75 27 83 28 8 1 17
5 20 8 3 3 42 5 86 5 65 0 78 -3 67 -13z m-5593 -295 c63 -21 95 -26 153 -24
51 2 72 -1 69 -9 -5 -16 -136 -11 -224 8 -41 9 -113 45 -113 57 0 7 6 8 18 3
9 -4 53 -20 97 -35z m-95 -83 c81 -27 96 -30 208 -48 96 -15 64 -31 -47 -23
-100 7 -207 42 -253 83 -10 8 -18 12 -18 8 0 -4 -7 -1 -15 8 -8 8 -27 24 -41
35 -14 11 -23 25 -20 30 4 6 29 -7 59 -29 30 -24 83 -50 127 -64z m5474 73
c-16 -26 -248 -119 -262 -105 -8 8 -9 7 123 64 124 52 151 60 139 41z m-380
-27 c5 -1 3 -8 -3 -16 -14 -17 -78 -27 -198 -32 -117 -4 -204 -25 -322 -80
-51 -24 -97 -41 -102 -38 -15 9 -10 40 9 56 15 14 80 51 92 53 3 0 28 8 55 18
86 29 185 42 325 42 74 -1 139 -2 144 -3z m-237 -126 c-2 -5 -21 -11 -43 -13
-91 -7 -219 -61 -283 -118 -21 -19 -41 -35 -45 -35 -31 0 53 86 121 125 27 14
71 32 100 38 61 14 154 16 150 3z m403 -52 c0 -8 -30 -22 -72 -35 -40 -12 -92
-27 -115 -35 -49 -16 -91 -24 -203 -40 -90 -12 -161 -38 -251 -91 -63 -37 -84
-41 -93 -18 -7 19 40 67 92 94 28 14 143 54 192 66 3 1 34 5 70 9 36 4 76 9
90 11 14 2 50 6 80 10 30 3 84 14 120 23 79 22 90 22 90 6z m-5214 -23 c24
-11 55 -17 79 -15 98 8 127 6 136 -7 4 -8 3 -19 -4 -27 -26 -31 -216 8 -267
55 -22 20 7 17 56 -6z m5974 -291 c0 -4 -21 -11 -46 -15 -25 -3 -54 -8 -65
-11 -10 -2 -27 -6 -38 -8 -10 -2 -34 -7 -52 -10 -19 -3 -43 -7 -54 -10 -11 -2
-42 -7 -68 -10 -27 -4 -59 -9 -70 -12 -12 -2 -39 -6 -61 -9 -21 -3 -50 -7 -65
-9 -14 -3 -45 -7 -68 -10 -24 -3 -60 -8 -82 -11 -21 -3 -58 -8 -82 -10 -24 -2
-69 -7 -99 -10 -173 -18 -437 -28 -425 -16 6 5 26 12 45 14 19 3 35 6 35 6 0
2 33 5 175 16 95 8 241 28 305 41 11 3 35 7 54 10 19 2 46 6 60 9 28 4 124 13
211 20 62 4 101 10 192 29 69 14 198 18 198 6z m-5822 -63 c11 -13 9 -150 -3
-216 -6 -37 -22 -71 -33 -72 -18 -2 -154 -8 -337 -14 -110 -3 -236 -8 -280
-10 -44 -2 -143 -6 -220 -10 -77 -3 -153 -8 -170 -11 -53 -8 -159 -13 -188 -7
-26 5 -27 6 -9 18 10 8 38 16 62 20 25 4 47 8 50 10 3 2 25 6 50 10 25 4 48 9
52 11 4 3 17 7 28 10 11 2 30 7 43 10 12 3 27 6 32 7 6 2 15 5 20 8 6 4 24 10
40 14 17 4 37 9 45 11 8 2 83 24 165 50 191 59 319 94 370 101 22 3 89 20 150
38 131 40 120 38 133 22z m4442 -212 c94 -17 173 -35 219 -50 55 -17 70 -21
126 -30 74 -12 93 -15 140 -20 28 -3 68 -8 90 -12 22 -3 49 -7 60 -8 50 -8 98
-18 210 -46 66 -17 128 -33 138 -35 9 -2 27 -6 40 -9 48 -12 124 -26 162 -31
63 -8 147 -24 183 -36 25 -7 31 -13 23 -21 -17 -17 -312 -9 -462 12 -65 8
-108 7 -164 -6 -22 -6 -49 -9 -60 -7 -44 7 -212 16 -381 21 -301 9 -351 8
-367 -5 -26 -22 -35 8 -40 128 -3 63 -6 120 -7 125 -8 37 0 47 33 41 17 -4 43
-9 57 -11z m1384 -15 c3 -4 -5 -6 -17 -6 -12 -1 -62 -4 -112 -8 -153 -12 -363
-16 -337 -5 13 5 65 12 115 15 51 4 93 7 94 8 5 4 252 0 257 -4z m-5876 -184
c58 -36 -114 -43 -773 -31 -165 3 -315 8 -334 11 -93 15 26 20 421 19 238 -1
460 1 493 4 85 9 178 7 193 -3z m-41 -132 c6 -18 -21 -20 -217 -18 -235 3
-218 2 -202 13 8 4 50 9 95 10 45 1 82 3 83 4 1 1 55 2 120 2 78 0 119 -4 121
-11z m4564 -42 c35 1 82 -2 104 -6 22 -5 49 -8 60 -8 16 1 17 -1 5 -8 -8 -4
-77 -10 -153 -13 -136 -4 -137 -4 -137 18 0 30 8 35 35 25 12 -5 51 -8 86 -8z
m648 -25 c40 -3 76 -9 80 -13 9 -9 -350 3 -360 13 -9 9 158 8 280 0z m-934
-59 c-2 -7 -6 -40 -9 -73 -5 -57 -7 -70 -22 -140 -6 -26 -8 -28 -14 -10 -18
49 15 235 42 235 4 0 5 -6 3 -12z m182 -19 c7 -7 38 -13 70 -15 32 -2 78 -5
103 -8 25 -3 90 -8 145 -11 238 -13 264 -28 34 -19 -90 3 -204 7 -254 8 -112
4 -135 10 -128 36 6 23 14 25 30 9z m1103 -144 c25 -4 59 -8 75 -10 67 -6 170
-23 198 -31 11 -3 29 -8 40 -9 30 -5 87 -21 116 -32 l25 -10 -27 -5 c-15 -3
-27 -2 -27 1 0 4 -12 6 -27 5 -16 -1 -55 2 -88 7 -33 4 -82 11 -110 14 -27 3
-61 8 -75 10 -14 2 -45 7 -70 10 -25 3 -52 8 -60 10 -8 2 -30 7 -47 10 -43 7
-94 16 -113 20 -8 2 -19 4 -23 4 -5 1 -6 5 -3 10 6 9 147 7 216 -4z m-870 -10
c0 -7 -122 -30 -205 -39 -57 -6 -79 2 -65 24 12 20 270 33 270 15z m-4562 -54
c10 -5 19 -23 20 -39 2 -34 37 -138 75 -226 29 -68 25 -85 -26 -117 -45 -27
-152 -59 -217 -65 -124 -10 -166 -14 -195 -20 -36 -6 -197 -60 -242 -80 -17
-8 -35 -14 -39 -14 -13 0 -113 -70 -148 -105 -18 -16 -56 -50 -86 -75 -99 -83
-135 -115 -165 -150 -56 -66 -112 -120 -125 -120 -19 0 -11 12 105 162 136
176 219 264 310 327 89 61 128 81 259 130 59 22 120 50 136 61 15 11 31 20 35
20 24 0 156 153 190 220 27 53 66 100 82 100 8 0 22 -4 31 -9z m4470 -201 c98
-33 193 -88 296 -170 65 -51 116 -113 104 -125 -2 -2 -28 19 -58 47 -118 109
-312 217 -421 233 -53 8 -102 32 -93 46 8 14 72 3 172 -31z m-24 -104 c75 -36
203 -118 247 -158 14 -12 80 -74 146 -136 66 -62 142 -128 169 -145 49 -33 70
-67 39 -67 -16 0 -63 30 -101 65 -44 41 -221 203 -264 241 -25 22 -67 56 -95
75 -27 19 -52 37 -55 41 -8 10 -143 71 -207 94 -29 10 -53 23 -53 30 0 31 50
19 174 -40z m-134 -153 c66 -32 98 -60 260 -221 267 -265 291 -287 372 -326
58 -29 166 -62 293 -90 6 -1 28 -10 49 -19 176 -76 186 -82 186 -99 0 -15 -46
-4 -140 35 -47 19 -98 38 -115 41 -16 3 -52 10 -80 15 -60 11 -231 47 -262 54
-68 17 -198 93 -261 154 -8 8 -30 26 -50 41 -21 15 -43 33 -50 40 -49 46 -186
117 -272 141 -25 7 -55 17 -68 22 -13 5 -52 9 -87 9 -72 0 -80 9 -47 57 9 14
33 58 52 97 53 106 88 114 220 49z m-4189 -37 c-13 -15 -71 -45 -99 -51 -9 -2
-29 -8 -44 -14 -16 -6 -28 -8 -28 -5 0 4 -6 2 -13 -4 -12 -10 -34 -16 -97 -28
-14 -3 -73 -6 -132 -9 -123 -4 -170 -15 -253 -57 -53 -27 -58 -28 -40 -8 49
54 158 87 310 94 61 2 125 7 144 11 39 8 150 46 213 75 46 20 58 19 39 -4z
m49 -75 c0 -11 -103 -66 -160 -85 -111 -37 -163 -45 -305 -51 -56 -3 -120 -11
-143 -19 -23 -8 -42 -11 -42 -6 0 11 20 18 109 36 14 3 28 7 32 9 4 3 47 7 95
11 49 3 100 7 114 10 14 2 40 7 59 10 19 3 80 25 135 49 117 51 106 47 106 36z
m4639 -160 c169 -150 271 -205 425 -226 94 -13 223 -69 233 -102 5 -14 -17 -8
-117 30 -60 23 -81 29 -165 43 -120 21 -281 108 -375 205 -33 34 -70 79 -70
86 0 4 -10 18 -22 32 -22 23 -22 24 -2 10 12 -8 54 -43 93 -78z m-4599 64 c0
-7 -141 -75 -162 -79 -15 -3 -91 -23 -128 -35 -35 -10 -167 -14 -157 -5 4 5
18 9 30 10 12 0 36 4 52 8 17 3 39 8 50 11 52 11 139 36 215 64 91 32 100 34
100 26z m197 -167 c17 -18 45 -55 62 -82 35 -57 33 -67 -33 -131 -23 -22 -79
-89 -126 -150 -46 -60 -105 -132 -131 -160 -27 -27 -57 -61 -69 -75 -12 -14
-30 -36 -41 -49 -12 -13 -65 -82 -120 -155 -54 -72 -103 -136 -108 -142 -4 -5
-14 -20 -20 -32 -12 -23 -35 -29 -46 -12 -6 9 88 171 201 346 79 123 274 484
274 507 0 3 18 35 40 71 22 36 40 70 40 75 0 9 16 19 36 20 5 1 24 -14 41 -31z
m3528 -76 c11 -10 35 -40 54 -67 19 -28 49 -67 66 -87 39 -46 90 -138 77 -138
-5 0 -27 21 -48 47 -22 26 -46 55 -54 64 -96 106 -151 179 -145 189 9 15 27
12 50 -8z m-4600 -108 c-39 -30 -144 -94 -154 -94 -5 0 -11 -4 -13 -8 -1 -5
-25 -21 -51 -35 -26 -15 -60 -35 -74 -44 -15 -10 -24 -12 -19 -5 11 19 141
104 236 155 91 48 107 55 75 31z m4566 -49 c17 -19 58 -67 91 -107 69 -83 80
-96 163 -193 33 -39 65 -74 71 -80 6 -5 37 -41 69 -80 33 -38 64 -75 69 -81
28 -30 46 -55 46 -64 0 -6 4 -10 8 -10 5 0 14 -11 20 -26 l12 -25 -34 26 c-18
14 -62 58 -97 98 -35 39 -75 84 -89 98 -14 15 -47 52 -75 84 -27 32 -54 63
-60 69 -5 6 -28 34 -50 61 -22 28 -44 55 -50 61 -20 21 -90 107 -104 127 -8
12 -23 29 -33 39 -10 10 -18 23 -18 28 0 21 32 8 61 -25z m4 -174 c60 -63 117
-122 125 -131 9 -8 50 -58 92 -110 83 -103 91 -113 206 -238 42 -47 88 -101
102 -121 13 -20 82 -92 151 -161 120 -118 184 -199 177 -221 -5 -16 -55 28
-98 85 -21 29 -57 70 -80 92 -59 54 -143 142 -177 185 -16 20 -42 49 -58 66
-17 16 -64 67 -105 113 -41 45 -80 88 -85 94 -6 6 -30 36 -55 66 -24 30 -110
122 -190 203 -139 142 -180 193 -180 228 0 30 14 29 39 -3 14 -18 75 -84 136
-147z m-3350 127 c-7 -21 -37 -57 -110 -132 -22 -23 -62 -66 -89 -96 -27 -30
-63 -71 -81 -90 -17 -19 -59 -69 -92 -110 -72 -87 -196 -211 -167 -165 10 16
26 37 34 46 8 9 22 25 30 35 28 36 95 119 105 130 5 7 28 33 50 59 22 27 51
60 63 74 13 14 47 53 75 85 63 72 175 186 183 186 3 0 2 -10 -1 -22z m3155
-97 c48 -52 163 -179 220 -246 34 -38 109 -121 140 -154 8 -9 60 -70 114 -136
127 -153 184 -212 271 -283 90 -74 135 -117 135 -131 0 -22 -20 -10 -122 72
-56 46 -159 119 -228 162 -172 109 -293 193 -367 255 -7 5 -17 10 -23 10 -5 0
-10 4 -10 9 0 5 -8 11 -17 13 -26 7 -426 276 -435 293 -6 9 2 20 26 34 18 12
55 44 81 72 97 103 141 110 215 30z m-3050 38 c0 -34 -411 -479 -443 -479 -11
0 4 17 83 99 25 25 62 66 82 91 32 40 50 61 116 135 10 11 41 50 70 87 29 36
58 69 65 71 20 9 27 8 27 -4z m526 -324 c11 -17 14 -36 10 -62 -14 -94 -18
-111 -32 -160 -19 -70 -48 -117 -110 -183 -95 -100 -134 -164 -159 -260 -29
-111 -35 -186 -22 -245 11 -47 12 -225 1 -257 -3 -13 -16 -36 -28 -53 -11 -16
-21 -32 -22 -35 0 -3 -6 -18 -13 -35 -30 -78 -45 -105 -57 -105 -11 0 -9 11 6
50 11 27 21 60 24 72 2 13 9 42 15 65 17 64 15 118 -7 213 -11 47 -23 102 -26
124 -4 21 -8 41 -10 45 -7 11 -19 126 -19 176 0 56 45 157 125 280 95 146 136
251 144 370 3 38 10 75 15 82 14 16 143 -48 165 -82z m133 -137 c-1 -34 -9
-80 -16 -102 -24 -70 -75 -166 -84 -160 -14 8 -11 23 17 82 52 111 65 148 66
187 0 22 2 43 5 48 11 18 14 3 12 -55z m1608 21 c39 -21 184 -259 157 -259 -4
0 -2 -6 4 -12 6 -8 9 -65 8 -143 -3 -218 23 -285 180 -455 98 -105 106 -115
140 -173 19 -32 34 -60 34 -63 0 -2 11 -27 25 -56 49 -101 28 -105 -35 -6 -53
83 -116 134 -220 179 -74 31 -114 53 -137 76 -7 6 -23 20 -35 30 -65 53 -112
156 -132 288 -13 79 -18 105 -36 165 -23 78 -76 169 -134 230 -60 64 -96 110
-96 123 0 11 69 42 180 82 37 14 62 12 97 -6z m-1480 -89 c-37 -105 -133 -291
-176 -342 -42 -50 -93 -121 -118 -166 -30 -53 -51 -57 -39 -7 7 27 72 127 107
166 65 70 104 137 134 229 9 30 27 78 40 105 12 28 26 61 30 75 4 14 13 28 19
32 21 14 23 -37 3 -92z m1912 31 c39 -85 91 -249 87 -275 -3 -23 -21 -32 -31
-15 -4 6 -9 28 -12 48 -5 42 -29 108 -72 203 -17 37 -31 77 -31 88 0 41 28 18
59 -49z m-1789 -8 c-1 -22 -29 -123 -44 -157 -16 -39 -64 -92 -73 -82 -6 6 42
111 61 135 5 7 11 19 12 26 5 32 26 85 35 85 5 0 9 -3 9 -7z m454 -38 c12 -16
16 -57 17 -195 1 -96 1 -178 1 -181 -1 -3 4 -35 9 -70 12 -75 20 -929 9 -908
-5 8 -11 37 -13 64 -3 28 -13 70 -22 94 -16 47 -60 223 -69 281 -3 19 -8 46
-11 60 -3 14 -8 38 -11 54 -2 16 -6 32 -8 35 -5 7 -15 77 -30 206 -5 38 -9 60
-20 115 -9 42 -24 103 -35 145 -13 46 -29 117 -37 160 -3 17 -11 53 -18 81
-21 82 -15 87 115 82 94 -3 110 -6 123 -23z m392 -36 c9 -7 8 -21 -2 -55 -7
-25 -16 -82 -18 -127 -7 -119 -16 -219 -22 -245 -4 -18 -8 -21 -18 -13 -9 8
-13 64 -14 228 0 119 2 221 5 226 6 10 52 1 69 -14z m-255 -16 c4 -138 -4
-1118 -10 -1228 -1 -5 -6 -4 -13 3 -8 8 -11 58 -10 164 0 84 2 361 3 616 1
382 4 462 15 462 8 0 14 -8 15 -17z m107 -163 c0 -69 2 -127 3 -130 1 -3 1 -9
0 -14 -1 -5 -4 -123 -5 -261 -2 -148 -8 -259 -14 -270 -16 -29 -19 50 -15 420
3 372 7 439 22 400 5 -11 9 -76 9 -145z m-2338 115 c0 -3 -10 -17 -22 -30 -13
-13 -28 -30 -33 -37 -61 -77 -141 -168 -147 -168 -22 0 -1 34 65 105 39 43 83
91 96 106 22 26 41 37 41 24z m3344 -17 c9 -47 20 -85 28 -95 6 -7 8 -13 5
-13 -4 0 0 -18 8 -39 13 -38 20 -69 31 -141 8 -50 81 -198 117 -238 15 -17 14
-32 -2 -32 -11 0 -64 54 -89 88 -20 29 -45 86 -57 132 -17 64 -25 101 -30 135
-3 22 -8 56 -10 75 -3 19 -8 53 -10 75 -3 22 -7 45 -9 52 -5 11 4 26 11 19 3
-2 6 -10 7 -18z m-2157 -205 c-53 -109 -80 -168 -97 -213 l-19 -55 -1 51 c0
70 26 139 70 185 33 35 57 51 47 32z m2149 -152 c40 -112 77 -176 166 -284
156 -189 195 -262 253 -469 11 -38 11 -49 0 -58 -9 -8 -14 -5 -20 12 -4 13 -8
25 -9 28 -1 3 -6 25 -10 50 -12 66 -60 160 -128 253 -34 45 -64 84 -67 87 -19
15 -131 160 -131 169 0 6 -4 11 -9 11 -14 0 -90 160 -106 224 -12 47 -12 62
-2 68 22 14 29 4 63 -91z m-701 -231 c9 -52 18 -115 20 -140 2 -25 4 -45 5
-45 1 0 3 -11 5 -25 9 -96 17 -171 21 -205 8 -77 13 -207 6 -201 -6 7 -8 14
-18 86 -3 25 -8 48 -10 51 -2 4 -6 24 -9 45 -4 22 -8 46 -10 54 -2 8 -7 42
-11 75 -3 33 -8 69 -10 80 -7 33 -17 330 -11 325 3 -3 13 -48 22 -100z"/>
<path d="M5055 5563 c-50 -7 -115 -20 -145 -30 -225 -68 -443 -281 -485 -473
-1 -3 -7 -25 -14 -50 -51 -178 -60 -429 -26 -772 7 -78 36 -122 85 -133 35 -8
56 -31 64 -70 9 -44 -3 -54 -75 -66 -35 -6 -71 -18 -80 -25 -8 -8 -20 -14 -26
-14 -5 0 -18 -9 -29 -21 -50 -55 -119 -58 -198 -7 -28 17 -86 52 -130 77 -43
25 -80 51 -83 58 -3 8 1 35 9 60 8 25 13 57 10 70 -5 27 -35 47 -60 39 -32
-11 -86 -118 -92 -181 -6 -64 8 -85 115 -171 33 -26 62 -51 63 -56 2 -4 8 -8
14 -8 19 0 110 -83 120 -109 6 -14 11 -45 12 -68 3 -50 20 -73 48 -68 29 6 36
15 56 71 25 70 66 74 78 8 18 -102 94 -96 109 8 8 50 32 75 81 84 49 9 73 24
110 69 23 27 61 58 93 73 30 15 68 44 85 65 26 32 30 46 30 95 0 66 -16 96
-84 159 -25 23 -57 63 -70 90 -23 44 -25 58 -23 163 4 171 14 231 58 325 34
75 62 112 85 115 38 6 55 -5 123 -75 44 -44 92 -83 119 -95 79 -35 180 -27
248 20 14 9 41 25 60 34 43 20 66 55 81 125 12 59 28 64 94 28 46 -25 54 -51
31 -96 -20 -38 -20 -70 -1 -77 8 -4 53 6 99 21 104 34 115 51 107 158 -1 21
-79 107 -96 107 -8 0 -15 4 -17 8 -3 9 -136 85 -202 116 -70 33 -141 43 -268
41 -102 -3 -136 -8 -197 -29 -41 -14 -80 -26 -88 -26 -17 0 -17 27 1 37 8 4
29 22 48 38 62 57 89 69 158 71 36 1 70 2 77 3 7 1 28 15 46 31 47 41 73 39
95 -7 14 -30 23 -38 42 -37 147 8 199 0 290 -44 42 -20 88 17 74 60 -9 29 -98
114 -166 158 -55 36 -208 107 -252 116 -74 17 -130 19 -211 7z m55 -573 c24
-24 25 -32 3 -59 -24 -29 -60 -34 -93 -14 -21 12 -27 23 -25 41 5 51 77 70
115 32z"/>
<path d="M3070 5544 c-36 -8 -72 -17 -80 -19 -73 -17 -241 -99 -293 -142 -22
-19 -58 -44 -79 -56 -48 -28 -78 -78 -59 -101 19 -23 33 -20 119 23 42 21 113
50 157 65 44 15 90 33 102 41 36 24 65 24 113 0 37 -19 61 -23 135 -22 l90 0
13 -29 c9 -18 36 -42 74 -64 82 -48 87 -56 30 -52 -128 8 -171 7 -217 -4 -27
-7 -72 -15 -100 -19 -155 -19 -248 -53 -333 -122 -72 -59 -78 -105 -19 -166
46 -49 72 -61 91 -41 9 8 16 23 16 32 0 28 30 63 68 79 31 13 37 13 50 -1 8
-8 15 -30 14 -48 0 -21 8 -45 24 -66 62 -80 119 -116 204 -126 30 -4 78 -18
106 -32 42 -21 62 -24 110 -21 33 2 71 -1 89 -8 49 -20 94 -10 202 46 82 41
105 58 118 84 8 18 15 40 15 50 0 16 -27 76 -39 85 -4 3 -28 36 -55 73 -26 37
-63 78 -82 90 -29 19 -46 47 -28 47 21 0 131 -70 162 -103 20 -21 56 -58 79
-82 48 -50 67 -81 59 -100 -7 -18 17 -48 42 -52 30 -4 54 36 55 89 1 104 -15
192 -43 233 -15 22 -42 69 -60 104 -39 75 -132 169 -220 222 -56 34 -235 100
-310 114 -76 14 -255 13 -320 -1z m171 -529 c27 -17 30 -53 6 -76 -17 -16 -31
-20 -61 -16 -42 6 -56 19 -56 54 0 43 66 65 111 38z m397 -69 c12 -4 22 -15
22 -24 0 -35 -150 -182 -185 -182 -10 0 -5 36 8 55 7 11 19 36 27 55 41 108
57 120 128 96z"/>
<path d="M5917 4533 c-3 -5 -8 -42 -11 -83 -3 -41 -9 -100 -13 -130 -7 -64 -6
-367 2 -379 3 -5 14 -7 24 -4 20 5 47 85 36 104 -4 5 -3 9 2 9 4 0 7 42 5 92
-1 51 -3 143 -3 203 -1 61 -5 127 -10 147 -10 37 -24 55 -32 41z"/>
<path d="M6030 4380 c-11 -7 -14 -32 -12 -117 1 -59 3 -116 5 -127 3 -17 -29
-167 -52 -240 -27 -85 -17 -148 22 -141 26 6 25 2 32 65 4 30 17 97 29 148 18
77 22 117 21 243 -2 157 -11 190 -45 169z"/>
<path d="M5740 3905 c-5 -13 -17 -50 -26 -82 -9 -32 -28 -86 -42 -121 -24 -61
-24 -63 -6 -76 20 -15 57 -12 62 4 2 6 10 17 19 25 8 8 11 15 8 15 -4 0 -1 10
7 23 27 41 54 182 42 219 -8 28 -53 23 -64 -7z"/>
<path d="M5893 3892 c-6 -4 -32 -63 -58 -132 -26 -69 -63 -155 -81 -192 -35
-69 -36 -98 -3 -98 18 0 69 47 69 63 0 5 11 32 24 60 59 131 78 186 81 234 3
52 -10 79 -32 65z"/>
<path d="M4000 3450 c-144 -76 -219 -98 -316 -91 -15 1 -29 15 -45 49 -21 40
-29 47 -57 50 -30 3 -34 0 -53 -44 -12 -26 -24 -74 -27 -107 -6 -67 8 -87 59
-87 16 0 47 -15 75 -36 56 -43 100 -63 157 -70 87 -11 195 -46 292 -93 55 -27
125 -55 155 -61 30 -7 74 -21 98 -31 57 -25 114 -25 136 -1 9 10 19 38 22 62
4 24 11 49 18 54 33 31 128 84 181 100 33 10 67 24 75 31 22 19 90 46 125 50
17 2 33 4 36 4 3 1 18 12 33 26 44 40 31 105 -33 173 -12 12 -25 22 -30 22
-11 0 -61 -50 -61 -61 0 -17 -77 -48 -106 -43 -70 11 -86 18 -150 61 -103 69
-147 86 -218 84 -121 -5 -172 -4 -221 2 -46 6 -57 3 -145 -43z m120 -246 c14
-2 36 -6 50 -10 43 -10 254 -11 267 -2 7 6 16 7 22 4 5 -3 11 -2 13 3 2 5 13
5 27 -1 31 -11 18 -26 -29 -32 -19 -2 -62 -14 -95 -26 -105 -37 -149 -33 -300
25 -80 31 -79 30 -70 45 7 11 18 10 115 -6z"/>
<path d="M5404 3200 c-79 -77 -93 -104 -63 -121 26 -14 72 15 125 77 52 62 56
71 49 94 -11 34 -38 22 -111 -50z"/>
<path d="M4177 2883 c-2 -2 -17 -5 -33 -8 -78 -11 -143 -42 -150 -72 -14 -54
24 -60 142 -22 66 21 182 22 221 1 12 -7 31 -32 42 -56 43 -99 149 -105 167
-10 15 80 -95 145 -268 160 -35 3 -75 6 -90 8 -15 2 -29 2 -31 -1z"/>
<path d="M1151 6862 c-9 -17 2 -33 97 -129 110 -112 165 -161 286 -251 70 -53
100 -63 109 -38 10 27 -99 148 -247 274 -49 42 -105 93 -125 114 -45 48 -103
62 -120 30z"/>
<path d="M1067 6789 c-15 -9 -15 -47 1 -75 9 -14 212 -190 256 -221 57 -41
106 -1 62 50 -11 14 -55 54 -96 89 -67 56 -103 92 -135 135 -14 19 -69 32 -88
22z"/>
<path d="M1425 6442 c-13 -14 -2 -42 24 -59 26 -16 48 -34 128 -100 32 -26 64
-16 58 19 -12 59 -179 171 -210 140z"/>
<path d="M775 6203 c-24 -6 -35 -21 -28 -39 4 -11 161 -114 232 -151 34 -19
69 -16 81 6 14 28 -10 52 -110 107 -47 26 -96 55 -109 65 -24 19 -31 20 -66
12z"/>
<path d="M7807 5109 c-26 -10 -66 -21 -88 -24 -22 -3 -50 -7 -62 -10 -12 -3
-33 -7 -47 -9 -14 -3 -36 -7 -50 -10 -14 -3 -52 -9 -85 -12 -76 -8 -104 -30
-87 -70 11 -22 16 -25 40 -19 15 5 64 9 109 11 46 2 134 10 195 19 169 23 218
44 218 93 0 52 -58 65 -143 31z"/>
<path d="M364 4796 c-12 -9 -15 -20 -10 -39 6 -25 12 -28 59 -30 40 -1 62 38
34 61 -21 17 -64 21 -83 8z"/>
<path d="M7490 3142 c-49 -17 -29 -56 46 -92 129 -61 252 -110 276 -110 51 0
66 55 23 88 -13 11 -53 29 -87 42 -35 12 -91 33 -126 47 -66 27 -107 35 -132
25z"/>
<path d="M6847 2013 c-4 -3 -7 -19 -7 -34 0 -29 2 -31 112 -129 26 -23 52 -57
58 -75 16 -50 79 -62 98 -20 17 38 -1 67 -104 164 -93 89 -137 115 -157 94z"/>
<path d="M3703 1422 c-25 -4 -37 -38 -47 -132 -4 -30 -8 -66 -11 -80 -2 -14
-7 -42 -9 -64 -3 -21 -8 -46 -10 -55 -3 -9 -7 -32 -10 -51 -3 -19 -16 -71 -29
-115 -16 -53 -22 -87 -16 -102 7 -20 7 -30 -6 -93 -3 -14 -7 -47 -10 -75 -3
-27 -10 -66 -15 -85 -20 -74 -3 -124 39 -113 17 4 25 17 36 58 7 25 25 123 29
155 5 37 10 67 27 165 6 33 12 69 14 80 1 11 8 49 14 83 12 64 16 91 26 192 3
30 9 73 12 95 8 54 6 126 -4 134 -4 4 -18 5 -30 3z"/>
<path d="M2627 1350 c-14 -11 -47 -52 -72 -90 -26 -39 -52 -76 -58 -83 -7 -6
-52 -72 -101 -145 l-89 -133 21 -27 c21 -28 53 -32 79 -10 14 11 56 82 123
202 17 32 58 98 90 147 40 61 57 97 55 114 -4 41 -18 48 -48 25z"/>
</g>
</svg>
