<svg width="25" height="25" viewBox="0 0 25 25" fill="none" xmlns="http://www.w3.org/2000/svg">
<path d="M10.7106 8.32552C10.7106 9.35607 11.546 10.1916 12.5766 10.1916C13.6071 10.1916 14.4426 9.35607 14.4426 8.32552C14.4426 7.29496 13.6071 6.4595 12.5766 6.4595C11.546 6.4595 10.7106 7.29496 10.7106 8.32552Z" fill="#999999"/>
<path fill-rule="evenodd" clip-rule="evenodd" d="M12.5 25C19.4036 25 25 19.4036 25 12.5C25 5.59644 19.4036 0 12.5 0C5.59644 0 0 5.59644 0 12.5C0 19.4036 5.59644 25 12.5 25ZM8.06251 8.32546C8.06251 5.83243 10.0835 3.81137 12.5766 3.81137C15.0697 3.81137 17.0907 5.83243 17.0907 8.32546C17.0907 10.8185 15.0697 12.8397 12.5766 12.8397C10.0835 12.8397 8.06251 10.8185 8.06251 8.32546ZM17.1176 15.1617C17.0604 15.2076 15.9774 16.0634 14.1702 16.4316L16.8981 19.1351C17.3778 19.6141 17.3784 20.3912 16.8994 20.8709C16.4205 21.3506 15.6435 21.3514 15.1636 20.8723L12.5153 18.2933L10.1099 20.8557C9.86912 21.1055 9.54789 21.2311 9.22631 21.2311C8.91959 21.2311 8.61261 21.117 8.37443 20.8873C7.88644 20.4168 7.8723 19.6398 8.34283 19.1518L10.932 16.4459C9.07424 16.0864 7.94659 15.2083 7.88852 15.1617C7.3597 14.7376 7.27476 13.9651 7.69885 13.4362C8.12288 12.9074 8.8953 12.8225 9.42424 13.2465C9.4354 13.2556 10.6149 14.1416 12.5153 14.1429C14.4157 14.1416 15.5707 13.2556 15.5819 13.2465C16.1109 12.8225 16.8833 12.9074 17.3073 13.4362C17.7314 13.9651 17.6464 14.7376 17.1176 15.1617Z" fill="#999999"/>
</svg>
